# xmcd
#
# Track frame offsets:
#	180
#	18326
#	33768
#	47894
#	63172
#	80319
#	96773
#	108903
#	120989
#	132640
#	154176
#	172374
#	187866
#	201950
#	217045
#	234094
#	250505
#	262634
#	274839
#	286354
#
# Disc length: 4112 seconds
#
# Revision: 1
# Processed by: cddbd v1.5.2PL0 Copyright (c) Steve Scherf et al.
# Submitted via: audiograbber 1.83.01
#
DISCID=0c100e14
DTITLE=Various Artist - PS CDG1212
DYEAR=1900
DGENRE=Country
TTITLE0=Tracy Byrd - Keeper Of The Stars w/ vocals
TTITLE1=Tractors - Baby Likes To Rock It w/ vocals
TTITLE2=Joe Diffie - Pickup Man w/ vocals
TTITLE3=Randy Travis - This Is Me w/ vocals
TTITLE4=Billy Ray Cyrus - Storm In The Heartland w/ vocals
TTITLE5=Vince Gill - You Better Think Twice w/ vocals
TTITLE6=Garth Brooks - The Fever w/ vocals
TTITLE7=Tim McGraw - Refried Dreams w/ vocals
TTITLE8=Hal Ketchum - Stay Forever w/ vocals
TTITLE9=Mavericks - I Should Have Been True w/ vocals
TTITLE10=Tracy Byrd - Keeper Of The Stars
TTITLE11=Tractors - Baby Likes To Rock It
TTITLE12=Joe Diffie - Pickup Man
TTITLE13=Randy Travis - This Is Me
TTITLE14=Billy Ray Cyrus - Storm In The Heartland
TTITLE15=Vince Gill - You Better Think Twice
TTITLE16=Garth Brooks - The Fever
TTITLE17=Tim McGraw - Refried Dreams
TTITLE18=Hal Ketchum - Stay Forever
TTITLE19=Mavericks - I Should Have Been True
EXTD=
EXTT0=
EXTT1=
EXTT2=
EXTT3=
EXTT4=
EXTT5=
EXTT6=
EXTT7=
EXTT8=
EXTT9=
EXTT10=
EXTT11=
EXTT12=
EXTT13=
EXTT14=
EXTT15=
EXTT16=
EXTT17=
EXTT18=
EXTT19=
PLAYORDER=
